<?xml version="1.0" encoding="UTF-8" standalone="no"?>
<!-- Created with Inkscape (http://www.inkscape.org/) -->

<svg
   width="1280"
   height="720"
   viewBox="0 0 338.66666 190.5"
   version="1.1"
   id="svg1"
   inkscape:version="1.4 (e7c3feb100, 2024-10-09)"
   sodipodi:docname="tutor2.svg"
   inkscape:export-filename="tutor2.png"
   inkscape:export-xdpi="96"
   inkscape:export-ydpi="96"
   xml:space="preserve"
   xmlns:inkscape="http://www.inkscape.org/namespaces/inkscape"
   xmlns:sodipodi="http://sodipodi.sourceforge.net/DTD/sodipodi-0.dtd"
   xmlns:xlink="http://www.w3.org/1999/xlink"
   xmlns="http://www.w3.org/2000/svg"
   xmlns:svg="http://www.w3.org/2000/svg"><sodipodi:namedview
     id="namedview1"
     pagecolor="#000000"
     bordercolor="#000000"
     borderopacity="0.25"
     inkscape:showpageshadow="2"
     inkscape:pageopacity="0.0"
     inkscape:pagecheckerboard="0"
     inkscape:deskcolor="#d1d1d1"
     inkscape:document-units="mm"
     inkscape:zoom="1.0141844"
     inkscape:cx="500.4021"
     inkscape:cy="360.38811"
     inkscape:window-width="1920"
     inkscape:window-height="1014"
     inkscape:window-x="0"
     inkscape:window-y="0"
     inkscape:window-maximized="1"
     inkscape:current-layer="g5"
     showgrid="false"
     inkscape:export-bgcolor="#000000cc" /><defs
     id="defs1"><linearGradient
       id="linearGradient1"
       inkscape:collect="always"><stop
         style="stop-color:#ffffff;stop-opacity:1;"
         offset="0"
         id="stop1" /><stop
         style="stop-color:#3b3b3b;stop-opacity:1;"
         offset="1"
         id="stop2" /></linearGradient><linearGradient
       inkscape:collect="always"
       xlink:href="#linearGradient1"
       id="linearGradient2"
       x1="102.01303"
       y1="108.83851"
       x2="102.01304"
       y2="89.402733"
       gradientUnits="userSpaceOnUse"
       gradientTransform="translate(67.3203,9.1015549)" /><linearGradient
       inkscape:collect="always"
       xlink:href="#linearGradient1"
       id="linearGradient12"
       gradientUnits="userSpaceOnUse"
       gradientTransform="translate(67.3203,9.1015549)"
       x1="102.01303"
       y1="108.83851"
       x2="102.01304"
       y2="89.402733" /></defs><g
     inkscape:label="Layer 1"
     inkscape:groupmode="layer"
     id="layer1"><g
       id="g5"><g
         id="g6"
         transform="matrix(0.47546586,0,0,0.47546586,35.901573,20.682035)"><circle
           style="fill:none;stroke:url(#linearGradient2);stroke-width:1;stroke-dasharray:none;stroke-opacity:1"
           id="path1"
           cx="169.33333"
           cy="95.25"
           r="22.690062" /><rect
           style="fill:none;stroke:#aabfd8;stroke-width:1;stroke-dasharray:none;stroke-opacity:1"
           id="rect2"
           width="6.7177339"
           height="10.869522"
           x="157.3504"
           y="89.815239"
           ry="3.3588669" /><rect
           style="fill:none;stroke:#d8aac5;stroke-width:1;stroke-dasharray:none;stroke-opacity:1"
           id="rect3"
           width="6.7177339"
           height="10.869522"
           x="174.59854"
           y="89.815239"
           ry="3.3588669" /><ellipse
           style="fill:#000000;stroke:#ffffff;stroke-width:1;stroke-dasharray:none;stroke-opacity:1"
           id="path3"
           cx="169.33333"
           cy="84.194069"
           rx="36.360611"
           ry="6.8450813" /><path
           id="rect4"
           style="fill:#000000;stroke:#ffffff;stroke-width:1;stroke-dasharray:none"
           d="m 158.62408,35.157314 c 13.04414,15.174686 21.04455,30.871138 24.00122,47.089356 -8.08737,2.434907 -16.6965,2.434907 -25.8274,0 -1.47834,-15.870374 -0.86961,-31.566826 1.82618,-47.089356 z"
           sodipodi:nodetypes="cccc" /></g><g
         id="g8"
         inkscape:label="Slime"
         transform="matrix(0.47546586,0,0,0.47546586,96.42619,18.630987)"><ellipse
           style="fill:none;stroke:#68d268;stroke-width:0.821097;stroke-dasharray:none;stroke-opacity:1"
           id="path7"
           ry="15.127717"
           rx="29.852173"
           cy="114.00751"
           cx="271.23663" /><g
           id="g11"
           transform="translate(0,8.7624221)"
           style="fill:#ff5584;fill-opacity:1"><rect
             style="fill:#ff5584;fill-opacity:1;stroke:none;stroke-width:0.372095"
             id="rect10"
             width="10.827969"
             height="0.84240574"
             x="60.139122"
             y="247.27481"
             ry="0.42120287"
             transform="matrix(0.82165629,-0.56998328,0.82165629,0.56998328,0,0)"
             inkscape:transform-center-x="112.62018"
             inkscape:transform-center-y="19.835091" /><rect
             style="fill:#ff5584;fill-opacity:1;stroke:none;stroke-width:0.372095"
             id="rect10-2"
             width="10.827969"
             height="0.84240574"
             x="242.28203"
             y="-65.974304"
             ry="0.42120287"
             transform="matrix(0.82165629,0.56998328,-0.82165629,0.56998328,0,0)"
             inkscape:transform-center-x="112.62019"
             inkscape:transform-center-y="19.835089" /></g><g
           id="g10"
           transform="translate(0,8.7624221)"
           style="fill:#ff5584;fill-opacity:1"><rect
             style="fill:#ff5584;fill-opacity:1;stroke:none;stroke-width:0.372095"
             id="rect10-7"
             width="10.827969"
             height="0.84240574"
             x="75.991203"
             y="263.5481"
             ry="0.42120287"
             transform="matrix(0.82165629,-0.56998328,0.82165629,0.56998328,0,0)"
             inkscape:transform-center-x="112.62018"
             inkscape:transform-center-y="19.835091" /><rect
             style="fill:#ff5584;fill-opacity:1;stroke:none;stroke-width:0.372095"
             id="rect10-2-0"
             width="10.827969"
             height="0.84240574"
             x="258.5553"
             y="-81.826385"
             ry="0.42120287"
             transform="matrix(0.82165629,0.56998328,-0.82165629,0.56998328,0,0)"
             inkscape:transform-center-x="112.62019"
             inkscape:transform-center-y="19.835089" /></g></g><text
         xml:space="preserve"
         style="font-style:normal;font-variant:normal;font-weight:normal;font-stretch:normal;font-size:8.46667px;font-family:'Trajan Pro';-inkscape-font-specification:'Trajan Pro';text-align:start;writing-mode:lr-tb;direction:ltr;text-anchor:start;fill:#ffffff;stroke:none;stroke-width:0.338208"
         x="129.6913"
         y="23.946329"
         id="text1"><tspan
           sodipodi:role="line"
           id="tspan1"
           style="font-style:normal;font-variant:normal;font-weight:normal;font-stretch:normal;font-size:8.46667px;font-family:Perpetua;-inkscape-font-specification:Perpetua;fill:#ffffff;stroke:none;stroke-width:0.338208"
           x="129.6913"
           y="23.946329">Click NUMBER to take it</tspan></text><text
         xml:space="preserve"
         style="font-style:normal;font-variant:normal;font-weight:normal;font-stretch:normal;font-size:8.46667px;font-family:'Trajan Pro';-inkscape-font-specification:'Trajan Pro';text-align:start;writing-mode:lr-tb;direction:ltr;text-anchor:start;fill:#ffffff;stroke:none;stroke-width:0.338208"
         x="122.18787"
         y="106.60332"
         id="text1-2"><tspan
           sodipodi:role="line"
           id="tspan1-6"
           style="font-style:normal;font-variant:normal;font-weight:normal;font-stretch:normal;font-size:8.46667px;font-family:Perpetua;-inkscape-font-specification:Perpetua;fill:#ffffff;stroke:none;stroke-width:0.338208"
           x="122.18787"
           y="106.60332">Click again to shoot NUMBER</tspan></text><text
         xml:space="preserve"
         style="font-style:normal;font-variant:normal;font-weight:normal;font-stretch:normal;font-size:21.1667px;font-family:'Trajan Pro';-inkscape-font-specification:'Trajan Pro';text-align:start;writing-mode:lr-tb;direction:ltr;text-anchor:start;fill:#ffffff;fill-opacity:1;stroke:none;stroke-width:1.96412"
         x="152.8365"
         y="110.87733"
         id="text11"
         transform="rotate(-15)"><tspan
           sodipodi:role="line"
           id="tspan11"
           style="font-style:normal;font-variant:normal;font-weight:normal;font-stretch:normal;font-size:21.1667px;font-family:'Upheaval TT (BRK)';-inkscape-font-specification:'Upheaval TT (BRK)';fill:#ffffff;stroke-width:1.96412"
           x="152.8365"
           y="110.87733">4</tspan></text><text
         xml:space="preserve"
         style="font-style:normal;font-variant:normal;font-weight:normal;font-stretch:normal;font-size:21.1667px;font-family:'Trajan Pro';-inkscape-font-specification:'Trajan Pro';text-align:start;writing-mode:lr-tb;direction:ltr;text-anchor:start;fill:#ffffff;fill-opacity:1;stroke:none;stroke-width:1.96412"
         x="194.07767"
         y="100.17242"
         id="text11-9"
         transform="rotate(15)"><tspan
           sodipodi:role="line"
           id="tspan11-2"
           style="font-style:normal;font-variant:normal;font-weight:normal;font-stretch:normal;font-size:21.1667px;font-family:'Upheaval TT (BRK)';-inkscape-font-specification:'Upheaval TT (BRK)';fill:#ffffff;stroke-width:1.96412"
           x="194.07767"
           y="100.17242">4</tspan></text><path
         style="fill:#ffffff;fill-opacity:1;stroke:none;stroke-width:0.785077;stroke-opacity:1"
         id="path5"
         d="m 199.83722,59.772627 c 1.49629,0.287996 2.97819,0.60289 4.45885,0.919699 -1.80743,-1.200329 -3.98232,-1.335049 -6.39078,-1.843706 -1.37989,-0.294599 -1.86696,-0.388741 -3.19955,-0.709925 -1.03626,-0.249762 -2.01223,-0.524188 -3.01727,-0.813 -0.1366,-0.03925 -0.27429,-0.07704 -0.41144,-0.115563 2.40061,1.501524 5.39343,1.962671 8.56019,2.562495 z"
         sodipodi:nodetypes="cccsscc" /><path
         style="fill:#ffffff;fill-opacity:1;stroke:none;stroke-width:0.785077;stroke-opacity:1"
         id="path6"
         d="m 204.20701,66.229478 c 1.49629,0.287996 2.97819,0.60289 4.45885,0.919699 -1.80743,-1.200329 -3.98232,-1.335049 -6.39078,-1.843706 -1.37989,-0.294599 -1.86696,-0.388741 -3.19955,-0.709925 -1.03626,-0.249762 -2.01223,-0.524188 -3.01727,-0.813 -0.1366,-0.03925 -0.27429,-0.07704 -0.41144,-0.115563 2.40061,1.501524 5.39343,1.962671 8.56019,2.562495 z"
         sodipodi:nodetypes="cccsscc" /><path
         style="fill:#ffffff;fill-opacity:1;stroke:none;stroke-width:0.785077;stroke-opacity:1"
         id="path5-7"
         d="m 147.60052,142.79804 c -1.49629,0.288 -2.97819,0.60289 -4.45885,0.9197 1.80743,-1.20033 3.98232,-1.33505 6.39078,-1.84371 1.37989,-0.2946 1.86696,-0.38874 3.19955,-0.70992 1.03626,-0.24976 2.01223,-0.52419 3.01727,-0.813 0.1366,-0.0393 0.27429,-0.077 0.41144,-0.11556 -2.40061,1.50152 -5.39343,1.96267 -8.56019,2.56249 z"
         sodipodi:nodetypes="cccsscc" /><path
         style="fill:#ffffff;fill-opacity:1;stroke:none;stroke-width:0.785077;stroke-opacity:1"
         id="path6-5"
         d="m 143.23073,149.25489 c -1.49629,0.288 -2.97819,0.60289 -4.45885,0.9197 1.80743,-1.20033 3.98232,-1.33505 6.39078,-1.84371 1.37989,-0.29459 1.86696,-0.38874 3.19955,-0.70992 1.03626,-0.24976 2.01223,-0.52419 3.01727,-0.813 0.1366,-0.0392 0.27429,-0.077 0.41144,-0.11556 -2.40061,1.50152 -5.39343,1.96267 -8.56019,2.56249 z"
         sodipodi:nodetypes="cccsscc" /><path
         id="path8"
         style="fill:#b8c5ca;fill-opacity:1;stroke:none;stroke-width:0.2;stroke-dasharray:none;stroke-opacity:1"
         d="m 188.67456,67.642936 c -0.20529,-0.002 -0.38398,0.0549 -0.52624,0.16777 -1.20412,0.39162 -0.47501,1.80049 0.39111,2.97662 0.43177,0.54506 0.144,0.28331 0.0268,1.05375 -0.0445,-0.66736 -0.1651,-0.90038 -0.74931,-1.59024 -1.00988,-1.19177 -2.34762,-1.70535 -2.9887,-1.14736 -0.6409,0.55859 -0.48006,2.11019 0.668,3.17041 0.51596,0.47648 0.37407,0.63096 0.424,1.0418 -0.0553,0.0901 -0.11553,0.18854 -0.17481,0.29236 -1.16276,-0.56576 -2.21561,-0.56171 -2.71181,0.01 -0.71254,0.82861 -0.0586,2.560284 1.46061,3.867844 1.14632,0.98477 2.50438,1.47836 3.40922,1.23908 0.69241,0.0951 1.53301,0.11688 2.54916,0.0432 1.85025,-0.13395 3.12965,-1.55601 3.35895,-3.44564 0.39503,-3.253204 -0.59925,-5.790074 -0.70263,-5.935884 -0.51368,-0.72499 -1.26477,-1.595 -2.11484,-1.06835 -0.57886,0.38053 0.50554,1.30643 0.64321,2.18437 0.0576,0.36683 -0.0713,0.62824 -0.20026,0.72362 0.0342,-0.63307 -0.24346,-1.44517 -0.73896,-2.15975 -0.59466,-0.85601 -1.39377,-1.41812 -2.02476,-1.42428 z"
         sodipodi:nodetypes="ccccccssccccssccscccc" /><g
         id="g12"
         transform="matrix(0.47546586,0,0,0.47546586,13.128705,105.90812)"><circle
           style="fill:none;stroke:url(#linearGradient12);stroke-width:1;stroke-dasharray:none;stroke-opacity:1"
           id="circle9"
           cx="169.33333"
           cy="95.25"
           r="22.690062" /><rect
           style="fill:none;stroke:#aabfd8;stroke-width:1;stroke-dasharray:none;stroke-opacity:1"
           id="rect9"
           width="6.7177339"
           height="10.869522"
           x="157.3504"
           y="89.815239"
           ry="3.3588669" /><rect
           style="fill:none;stroke:#d8aac5;stroke-width:1;stroke-dasharray:none;stroke-opacity:1"
           id="rect11"
           width="6.7177339"
           height="10.869522"
           x="174.59854"
           y="89.815239"
           ry="3.3588669" /><ellipse
           style="fill:#000000;stroke:#ffffff;stroke-width:1;stroke-dasharray:none;stroke-opacity:1"
           id="ellipse11"
           cx="169.33333"
           cy="84.194069"
           rx="36.360611"
           ry="6.8450813" /><path
           id="path11"
           style="fill:#000000;stroke:#ffffff;stroke-width:1;stroke-dasharray:none"
           d="m 158.62408,35.157314 c 13.04414,15.174686 21.04455,30.871138 24.00122,47.089356 -8.08737,2.434907 -16.6965,2.434907 -25.8274,0 -1.47834,-15.870374 -0.86961,-31.566826 1.82618,-47.089356 z"
           sodipodi:nodetypes="cccc" /></g><g
         id="g13"
         transform="matrix(0.66963892,0,0,0.66963892,61.45366,35.082975)"><rect
           style="fill:#b8c5ca;fill-opacity:1;stroke:#000000;stroke-width:1;stroke-dasharray:none;stroke-opacity:1"
           id="rect12"
           width="5.3958073"
           height="11.806211"
           x="247.19254"
           y="140.56769"
           ry="0.42120284" /><rect
           style="fill:#b8c5ca;fill-opacity:1;stroke:#000000;stroke-width:1;stroke-dasharray:none;stroke-opacity:1"
           id="rect12-7"
           width="5.3958073"
           height="11.806211"
           x="247.19254"
           y="157.76971"
           ry="0.42120284" /><rect
           style="fill:#b8c5ca;fill-opacity:1;stroke:#000000;stroke-width:1;stroke-dasharray:none;stroke-opacity:1"
           id="rect12-8"
           width="5.3958073"
           height="11.806211"
           x="-157.76971"
           y="252.58835"
           ry="0.42120284"
           transform="rotate(-90)" /><rect
           style="fill:#b8c5ca;fill-opacity:1;stroke:#000000;stroke-width:1;stroke-dasharray:none;stroke-opacity:1"
           id="rect12-8-6"
           width="5.3958073"
           height="11.806211"
           x="-157.76971"
           y="235.38634"
           ry="0.42120284"
           transform="rotate(-90)" /></g><path
         id="rect13"
         style="fill:none;fill-opacity:1;stroke:#ffffff;stroke-width:0.72425;stroke-dasharray:none;stroke-opacity:1"
         d="m 248.19922,114.09288 c -0.169,0 -0.30489,0.13589 -0.30489,0.30489 v 13.68547 c 0,0.169 0.13589,0.3054 0.30489,0.3054 h 3.2737 v 6.25802 h -3.2737 c -0.169,0 -0.30489,0.13641 -0.30489,0.30541 v 13.68547 c 0,0.169 0.13589,0.30489 0.30489,0.30489 h 3.2737 v 6.90397 h -3.2737 c -0.169,0 -0.30489,0.13641 -0.30489,0.30541 v 13.68547 c 0,0.169 0.13589,0.30489 0.30489,0.30489 h 3.2737 v 5.97121 c 0,0.18223 0.14643,0.32918 0.32866,0.32918 h 6.48075 c 0.18223,0 0.32917,-0.14695 0.32917,-0.32918 v -5.97121 h 3.27319 c 0.169,0 0.30489,-0.13589 0.30489,-0.30489 v -13.68547 c 0,-0.169 -0.13589,-0.30541 -0.30489,-0.30541 h -3.27319 v -6.90397 h 3.27319 c 0.169,0 0.30489,-0.13589 0.30489,-0.30489 v -13.68547 c 0,-0.169 -0.13589,-0.30541 -0.30489,-0.30541 h -3.27319 v -6.25802 h 3.27319 c 0.169,0 0.30489,-0.1364 0.30489,-0.3054 v -13.68547 c 0,-0.169 -0.13589,-0.30489 -0.30489,-0.30489 z" /></g></g></svg>
